<?xml version="1.0" standalone="no"?>
<!DOCTYPE svg PUBLIC "-//W3C//DTD SVG 20010904//EN"
 "http://www.w3.org/TR/2001/REC-SVG-20010904/DTD/svg10.dtd">
<svg version="1.0" xmlns="http://www.w3.org/2000/svg"
 width="300.000000pt" height="300.000000pt" viewBox="0 0 300.000000 300.000000"
 preserveAspectRatio="xMidYMid meet">
<rect width="100%" height="100%" fill="#FFFFFF"/>
<g transform="translate(0.000000,300.000000) scale(0.100000,-0.100000)"
fill="#FF0000" stroke="none">
<path d="M0 1500 l0 -1500 1500 0 1500 0 0 1500 0 1500 -1500 0 -1500 0 0
-1500z m750 125 l0 -45 -40 0 -40 0 0 -155 0 -155 -70 0 -70 0 0 155 0 155
-40 0 c-40 0 -40 0 -40 38 0 21 3 42 7 45 3 4 71 7 150 7 l143 0 0 -45z m1070
-161 l0 -194 -65 0 c-49 0 -65 3 -65 14 0 11 -8 10 -37 -5 -47 -24 -57 -24
-108 1 -103 50 -112 193 -16 257 44 30 109 31 139 3 l22 -21 0 65 0 65 48 6
c26 4 52 8 57 9 6 2 13 1 18 -1 4 -2 7 -92 7 -199z m-836 75 c33 -26 56 -70
56 -107 0 -29 -1 -30 -67 -36 -96 -10 -107 -14 -91 -33 10 -12 26 -14 75 -10
62 6 63 6 65 -18 0 -14 1 -31 2 -37 1 -18 -91 -39 -139 -32 -92 14 -141 75
-133 163 5 55 23 81 73 112 42 27 124 25 159 -2z m382 6 c39 -27 54 -76 54
-179 l0 -96 -60 0 -60 0 0 83 c0 93 -12 121 -50 115 -35 -4 -50 -42 -50 -125
l0 -73 -60 0 -60 0 0 140 0 140 60 0 c55 0 60 -2 60 -22 0 -19 2 -20 13 -6 30
39 114 51 153 23z m744 -3 c19 -9 45 -33 58 -52 20 -29 23 -44 20 -88 -4 -43
-11 -59 -37 -86 -67 -69 -185 -69 -251 -1 -27 28 -34 44 -38 87 -3 44 0 59 20
88 30 45 81 70 143 70 28 0 66 -8 85 -18z m360 0 c19 -9 45 -33 58 -52 20 -29
23 -44 20 -88 -4 -43 -11 -59 -37 -86 -67 -69 -185 -69 -251 -1 -27 28 -34 44
-38 87 -3 44 0 59 20 88 30 45 81 70 143 70 28 0 66 -8 85 -18z"/>
<path d="M1600 1450 c-24 -24 -25 -38 -4 -68 17 -24 62 -30 82 -10 18 18 14
63 -6 81 -25 22 -48 21 -72 -3z"/>
<path d="M883 1478 c-27 -36 -26 -39 14 -32 50 9 56 13 42 30 -14 17 -43 18
-56 2z"/>
<path d="M1985 1446 c-32 -49 11 -110 61 -87 28 13 39 47 25 84 -14 36 -63 38
-86 3z"/>
<path d="M2345 1446 c-32 -49 11 -110 61 -87 28 13 39 47 25 84 -14 36 -63 38
-86 3z"/>
</g>
</svg>
